<?xml version="1.0"?>
<svg width="2400" height="1410" xmlns="http://www.w3.org/2000/svg" xmlns:svg="http://www.w3.org/2000/svg" enable-background="new 0 0 2400 1410" version="1.1" xml:space="preserve">
 <g class="layer">
  <title>Layer 1</title>
  <g id="svg_2">
   <path d="m797.22,134.63l1602.78,0l0,-129.63l-1602.78,0c-68.7,0 -133.3,26.97 -181.88,75.94c-48.59,48.96 -75.34,114.08 -75.34,183.32c0,69.25 26.75,134.35 75.34,183.33c48.58,48.96 113.18,75.94 181.88,75.94c70.92,0 128.62,58.15 128.62,129.63c0,71.48 -57.7,129.63 -128.62,129.63c-68.7,0 -133.3,26.97 -181.88,75.94c-48.59,48.97 -75.34,114.08 -75.34,183.33s26.75,134.35 75.34,183.32c48.58,48.96 113.18,75.94 181.88,75.94c62.46,0 114.65,45.11 126.22,104.7l129.83,0c-5.62,-59.84 -31.46,-115.36 -74.16,-158.39c-48.58,-48.96 -113.18,-75.94 -181.89,-75.94c-70.91,0 -128.61,-58.16 -128.61,-129.63c0,-71.48 57.7,-129.63 128.61,-129.63c68.71,0 133.31,-26.97 181.89,-75.94c48.58,-48.97 75.34,-114.08 75.34,-183.33c0,-69.25 -26.76,-134.35 -75.34,-183.33c-48.58,-48.96 -113.18,-75.93 -181.89,-75.93c-70.91,0 -128.61,-58.16 -128.61,-129.64s57.7,-129.63 128.61,-129.63z" fill="#F5F5F5" id="svg_3"/>
   <path d="m618.85,1128.46c7.39,15.46 16.76,29.94 27.85,43.03l7.53,-6.48c-10.54,-12.44 -19.45,-26.19 -26.46,-40.87l-8.92,4.32zm178.34,103.04c-5.61,0 -11.27,-0.25 -16.83,-0.76l-0.88,9.94c5.85,0.52 11.81,0.79 17.71,0.79l0.04,0c10.57,0 21.17,0.9 31.51,2.65l1.65,-9.83c-10.88,-1.85 -22.04,-2.79 -33.17,-2.79l-0.03,0zm-89.49,-367.36c-15.18,7.78 -29.33,17.53 -42.08,28.98l6.58,7.45c12.11,-10.89 25.57,-20.15 39.99,-27.53l-4.49,-8.9zm-98.02,164.93l-9.87,-0.67c-0.3,4.52 -0.45,9.1 -0.45,13.64c0,12.64 1.18,25.3 3.52,37.63l9.71,-1.87c-2.21,-11.7 -3.34,-23.74 -3.34,-35.76c0,-4.3 0.15,-8.67 0.43,-12.96zm30.8,-91.64l-8.25,-5.51c-9.44,14.34 -17,29.85 -22.46,46.11l9.37,3.2c5.19,-15.43 12.37,-30.17 21.34,-43.79zm156.8,-84.85c3.08,0 6.2,-0.08 9.27,-0.22l-0.46,-9.96c-2.94,0.13 -5.94,0.2 -8.86,0.2c-13.97,0 -27.92,1.48 -41.46,4.39l2.06,9.75c12.86,-2.76 26.12,-4.16 39.39,-4.16l0.06,0zm-112.8,353.36c14.02,9.82 29.25,17.76 45.24,23.62l3.38,-9.37c-15.2,-5.56 -29.65,-13.1 -42.97,-22.43l-5.65,8.18zm14.24,-768.69c14.8,8.58 30.65,15.18 47.1,19.62l2.56,-9.63c-15.62,-4.22 -30.67,-10.5 -44.73,-18.65l-4.93,8.65zm-71.91,-71.6c8.67,14.78 19.23,28.39 31.37,40.49l6.95,-7.1c-11.54,-11.49 -21.56,-24.43 -29.8,-38.46l-8.52,5.07zm350.9,234.37l9.5,-2.79c-4.77,-16.48 -11.66,-32.3 -20.49,-47.04l-8.47,5.16c8.39,13.99 14.93,29.03 19.46,44.67zm-361.44,-284.3c-4.37,-15.65 -6.72,-31.89 -6.99,-48.28l-9.89,0.16c0.28,17.25 2.75,34.35 7.36,50.82l9.52,-2.7zm273.27,-250.9l-49.84,0l0,9.97l49.84,0l0,-9.97zm99.68,0l-49.84,0l0,9.97l49.84,0l0,-9.97zm-357.02,108.64l-8.68,-4.79c-8.19,15.1 -14.41,31.21 -18.47,47.89l9.61,2.38c3.86,-15.84 9.76,-31.13 17.54,-45.48zm66.02,-70.29l-5.22,-8.48c-14.47,9.05 -27.75,19.98 -39.49,32.47l7.19,6.85c11.15,-11.87 23.77,-22.25 37.52,-30.85zm91.83,-28.24l-0.37,-9.97c-17.1,0.65 -34,3.51 -50.25,8.51l2.88,9.53c15.44,-4.75 31.5,-7.46 47.74,-8.07zm1146.11,-10.11l0,9.97l48.25,0l0,-9.97l-48.25,0zm-398.71,9.97l49.84,0l0,-9.97l-49.84,0l0,9.97zm-199.36,0l49.84,0l0,-9.97l-49.84,0l0,9.97zm99.68,0l49.84,0l0,-9.97l-49.84,0l0,9.97zm-199.36,0l49.84,0l0,-9.97l-49.84,0l0,9.97zm398.72,0l49.83,0l0,-9.97l-49.83,0l0,9.97zm199.36,0l49.83,0l0,-9.97l-49.83,0l0,9.97zm-99.68,0l49.83,0l0,-9.97l-49.83,0l0,9.97zm298.82,0l49.84,0l0,-9.97l-49.84,0l0,9.97zm99.68,0l49.84,0l0,-9.97l-49.84,0l0,9.97zm99.68,0l49.84,0l0,-9.97l-49.84,0l0,9.97zm-99.68,0l49.84,0l0,-9.97l-49.84,0l0,9.97zm100.55,0l49.84,0l0,-9.97l-49.84,0l0,9.97zm99.68,0l49.84,0l0,-9.97l-49.84,0l0,9.97zm-99.68,0l49.84,0l0,-9.97l-49.84,0l0,9.97zm-1439.48,378.92l-0.05,9.98l0.89,0c15.99,0 31.87,2.03 47.2,6.02l2.47,-9.66c-16.13,-4.2 -32.84,-6.33 -49.66,-6.33l-0.85,-0.01zm342.35,-378.92l49.84,0l0,-9.97l-49.84,0l0,9.97zm-263.69,1183.61c14.71,6.75 28.55,15.43 41.11,25.78l6.26,-7.71c-13.22,-10.91 -27.78,-20.04 -43.27,-27.14l-4.1,9.07zm19.14,-779.15l-4.86,8.69c14.1,8 27.15,17.83 38.79,29.22l6.89,-7.16c-12.25,-11.98 -25.98,-22.34 -40.82,-30.75zm144.88,-404.47l49.83,0l0,-9.97l-49.83,0l0,9.97zm-141.41,738.53c-13.7,8.75 -28.47,15.67 -43.9,20.56l2.98,9.51c16.24,-5.15 31.79,-12.44 46.22,-21.65l-5.3,-8.43zm87.48,-165.08c0.05,1.63 0.07,3.27 0.07,4.9c0,14.75 -1.69,29.43 -5.02,43.64l9.63,2.29c3.5,-14.96 5.28,-30.42 5.28,-45.93c0,-1.72 -0.02,-3.44 -0.07,-5.15l-9.89,0.25zm-35.73,671.43c9.53,13.22 17.32,27.64 23.16,42.83l9.23,-3.61c-6.15,-15.99 -14.35,-31.15 -24.39,-45.08l-8,5.87zm13.65,-577.24c-7.63,14.37 -17.1,27.73 -28.15,39.7l7.24,6.79c11.63,-12.6 21.6,-26.66 29.64,-41.79l-8.73,-4.71z" fill="#FFFFFF" id="svg_4"/>
  </g>
 </g>
</svg>