<?xml version="1.0" encoding="utf-8"?>
<!-- Generator: Adobe Illustrator 16.0.0, SVG Export Plug-In . SVG Version: 6.00 Build 0)  -->
<!DOCTYPE svg PUBLIC "-//W3C//DTD SVG 1.1//EN" "http://www.w3.org/Graphics/SVG/1.1/DTD/svg11.dtd">
<svg version="1.1" id="trazo" xmlns="http://www.w3.org/2000/svg" xmlns:xlink="http://www.w3.org/1999/xlink" x="0px" y="0px"
	 width="2400px" height="1410px" viewBox="0 0 2400 1410" enable-background="new 0 0 2400 1410" xml:space="preserve">
<path fill="#9190AC" d="M0,0h2400v107.333l-768.986-43.942L800.002,126H0V0z"/>
<g>
	<path fill="#F5F5F5" d="M797.224,133.612H2400V5H797.224c-68.707,0-133.302,26.756-181.885,75.339
		C566.755,128.922,540,193.517,540,262.224c0,68.707,26.755,133.301,75.339,181.885c48.583,48.583,113.178,75.339,181.885,75.339
		c70.917,0,128.612,57.695,128.612,128.612c0,70.916-57.695,128.612-128.612,128.612c-68.707,0-133.302,26.756-181.885,75.339
		C566.755,900.595,540,965.189,540,1033.896s26.755,133.302,75.339,181.885c48.583,48.583,113.178,75.341,181.885,75.341
		c62.458,0,114.651,44.756,126.216,103.878h129.833c-5.627-59.367-31.459-114.447-74.164-157.151
		c-48.582-48.583-113.177-75.34-181.885-75.34c-70.917,0-128.612-57.694-128.612-128.612c0-70.917,57.696-128.61,128.612-128.61
		c68.708,0,133.303-26.758,181.885-75.339c48.583-48.583,75.339-113.18,75.339-181.887c0-68.708-26.756-133.303-75.339-181.886
		c-48.582-48.583-113.177-75.338-181.885-75.338c-70.917,0-128.612-57.695-128.612-128.612S726.308,133.612,797.224,133.612z"/>
	<path fill="#FFFFFF" d="M618.854,1119.64c7.387,15.341,16.755,29.703,27.848,42.69l7.523-6.426
		c-10.539-12.341-19.44-25.983-26.458-40.555L618.854,1119.64z M797.191,1221.868c-5.608,0-11.273-0.251-16.835-0.745l-0.876,9.854
		c5.853,0.52,11.812,0.785,17.713,0.785h0.032c10.575,0,21.18,0.885,31.517,2.629l1.646-9.755
		c-10.879-1.835-22.038-2.768-33.164-2.768H797.191z M707.703,857.395c-15.178,7.714-29.337,17.385-42.085,28.75l6.583,7.385
		c12.112-10.796,25.565-19.986,39.985-27.314L707.703,857.395z M609.685,1021.035l-9.871-0.666
		c-0.302,4.476-0.456,9.027-0.455,13.527c0,12.549,1.184,25.107,3.517,37.33l9.717-1.854c-2.217-11.614-3.341-23.55-3.341-35.477
		C609.252,1029.618,609.397,1025.292,609.685,1021.035z M640.478,930.11l-8.244-5.471c-9.443,14.232-17,29.625-22.461,45.752
		l9.37,3.172C624.329,958.25,631.507,943.628,640.478,930.11z M797.282,845.926c3.079,0,6.196-0.072,9.267-0.215l-0.459-9.884
		c-2.938,0.136-5.937,0.204-8.865,0.205c-13.97,0-27.92,1.464-41.459,4.354l2.063,9.674c12.863-2.743,26.118-4.134,39.395-4.134
		H797.282z M684.483,1196.521c14.021,9.739,29.244,17.621,45.241,23.43l3.376-9.303c-15.195-5.513-29.653-13-42.974-22.252
		L684.483,1196.521z M698.722,433.866c14.8,8.511,30.646,15.065,47.099,19.479l2.563-9.554
		c-15.625-4.193-30.675-10.418-44.73-18.501L698.722,433.866z M626.812,362.833c8.671,14.657,19.225,28.17,31.368,40.166
		l6.953-7.038c-11.539-11.398-21.567-24.239-29.806-38.165L626.812,362.833z M977.71,595.362l9.497-2.769
		c-4.766-16.351-11.658-32.052-20.484-46.67l-8.469,5.114C966.639,564.922,973.185,579.835,977.71,595.362z M616.27,313.289
		c-4.372-15.524-6.724-31.64-6.992-47.903l-9.892,0.164c0.282,17.114,2.759,34.078,7.36,50.419L616.27,313.289z M889.539,64.359
		h-49.84v9.894h49.84V64.359z M989.217,64.359h-49.839v9.894h49.839V64.359z M632.197,172.152l-8.68-4.748
		c-8.192,14.974-14.404,30.958-18.464,47.505l9.608,2.357C618.517,201.554,624.417,186.375,632.197,172.152z M698.221,102.406
		l-5.218-8.405c-14.471,8.983-27.757,19.822-39.489,32.215l7.184,6.802C671.847,121.241,684.472,110.942,698.221,102.406z
		 M790.05,74.387l-0.37-9.887c-17.095,0.642-34.003,3.479-50.254,8.435l2.886,9.463C757.746,77.691,773.808,74.996,790.05,74.387z
		 M1936.162,64.359v9.894h48.252v-9.894H1936.162z M1537.449,74.253h49.838v-9.894h-49.838V74.253z M1338.092,74.253h49.84v-9.894
		h-49.84V74.253z M1437.771,74.253h49.838v-9.894h-49.838V74.253z M1238.412,74.253h49.842v-9.894h-49.842V74.253z M1637.127,74.253
		h49.838v-9.894h-49.838V74.253z M1836.486,74.253h49.838v-9.894h-49.838V74.253z M1736.807,74.253h49.838v-9.894h-49.838V74.253z
		 M2035.627,74.253h49.84v-9.894h-49.84V74.253z M2135.307,74.253h49.84v-9.894h-49.84V74.253z M2234.986,74.253h49.84v-9.894
		h-49.84V74.253z M2135.307,74.253h49.84v-9.894h-49.84V74.253z M2235.861,74.253h49.84v-9.894h-49.84V74.253z M2335.541,74.253
		h49.84v-9.894h-49.84V74.253z M2235.861,74.253h49.84v-9.894h-49.84V74.253z M796.375,450.194l-0.048,9.892l0.897,0.002
		c15.987,0,31.865,2.01,47.192,5.973l2.478-9.579c-16.135-4.172-32.846-6.287-49.669-6.287L796.375,450.194z M1138.735,74.253h49.84
		v-9.894h-49.84V74.253z M875.037,1248.572c14.716,6.701,28.549,15.31,41.113,25.583l6.262-7.657
		c-13.224-10.816-27.783-19.876-43.274-26.932L875.037,1248.572z M894.179,475.538l-4.854,8.621
		c14.097,7.938,27.148,17.693,38.787,28.988l6.891-7.098C922.751,494.158,909.016,483.894,894.179,475.538z M1039.056,74.253h49.839
		v-9.894h-49.839V74.253z M897.652,806.984c-13.704,8.68-28.474,15.543-43.898,20.401l2.972,9.437
		c16.242-5.115,31.793-12.342,46.219-21.479L897.652,806.984z M985.133,643.199c0.042,1.617,0.062,3.237,0.062,4.861
		c0,14.63-1.686,29.199-5.011,43.303l9.629,2.27c3.5-14.846,5.274-30.178,5.274-45.572c0-1.711-0.021-3.414-0.064-5.114
		L985.133,643.199z M949.396,1309.36c9.535,13.121,17.329,27.418,23.168,42.489l9.225-3.574
		c-6.146-15.867-14.353-30.918-24.39-44.73L949.396,1309.36z M963.054,736.648c-7.634,14.261-17.108,27.515-28.158,39.396
		l7.245,6.738c11.628-12.504,21.599-26.455,29.636-41.465L963.054,736.648z"/>
</g>
<path fill="#DFDFF1" d="M1642.814,1341.324c-96.473,41.839-219.065,63.731-346.71,63.731
	c-283.311,0-307.066-121.673-594.792-171.479C316.144,1166.9,0,1410,0,1410h2400C2400,1410,2170.33,1112.545,1642.814,1341.324z"/>
</svg>
