<?xml version="1.0"?>
<svg width="2400" height="1410" xmlns="http://www.w3.org/2000/svg" xmlns:svg="http://www.w3.org/2000/svg" enable-background="new 0 0 2400 1410" version="1.1" xml:space="preserve">
 <g class="layer">
  <title>Layer 1</title>
  <path d="m0,0l2400,0l0,107.33l-768.99,-43.94l-831.01,62.61l-800,0l0,-126z" fill="#a3a3aa" id="svg_1"/>
  <g id="svg_2">
   <path d="m797.22,133.61l1602.78,0l0,-128.61l-1602.78,0c-68.7,0 -133.3,26.76 -181.88,75.34c-48.59,48.58 -75.34,113.18 -75.34,181.88c0,68.71 26.75,133.3 75.34,181.89c48.58,48.58 113.18,75.34 181.88,75.34c70.92,0 128.62,57.69 128.62,128.61c0,70.92 -57.7,128.61 -128.62,128.61c-68.7,0 -133.3,26.76 -181.88,75.34c-48.59,48.59 -75.34,113.18 -75.34,181.89s26.75,133.3 75.34,181.88c48.58,48.58 113.18,75.34 181.88,75.34c62.46,0 114.65,44.76 126.22,103.88l129.83,0c-5.62,-59.37 -31.46,-114.45 -74.16,-157.15c-48.58,-48.58 -113.18,-75.34 -181.89,-75.34c-70.91,0 -128.61,-57.7 -128.61,-128.61c0,-70.92 57.7,-128.61 128.61,-128.61c68.71,0 133.31,-26.76 181.89,-75.34c48.58,-48.59 75.34,-113.18 75.34,-181.89c0,-68.71 -26.76,-133.3 -75.34,-181.89c-48.58,-48.58 -113.18,-75.33 -181.89,-75.33c-70.91,0 -128.61,-57.7 -128.61,-128.62s57.7,-128.61 128.61,-128.61z" fill="#F5F5F5" id="svg_3"/>
   <path d="m618.85,1119.64c7.39,15.34 16.76,29.7 27.85,42.69l7.53,-6.43c-10.54,-12.34 -19.45,-25.98 -26.46,-40.55l-8.92,4.29zm178.34,102.23c-5.61,0 -11.27,-0.25 -16.83,-0.75l-0.88,9.86c5.85,0.52 11.81,0.78 17.71,0.78l0.04,0c10.57,0 21.17,0.89 31.51,2.63l1.65,-9.75c-10.88,-1.84 -22.04,-2.77 -33.17,-2.77l-0.03,0zm-89.49,-364.48c-15.18,7.72 -29.33,17.39 -42.08,28.75l6.58,7.39c12.11,-10.8 25.57,-19.99 39.99,-27.31l-4.49,-8.83zm-98.02,163.64l-9.87,-0.66c-0.3,4.48 -0.45,9.03 -0.45,13.53c0,12.54 1.18,25.1 3.52,37.33l9.71,-1.86c-2.21,-11.61 -3.34,-23.55 -3.34,-35.48c0,-4.27 0.15,-8.6 0.43,-12.86zm30.8,-90.92l-8.25,-5.47c-9.44,14.23 -17,29.62 -22.46,45.75l9.37,3.17c5.19,-15.31 12.37,-29.93 21.34,-43.45zm156.8,-84.18c3.08,0 6.2,-0.08 9.27,-0.22l-0.46,-9.88c-2.94,0.13 -5.94,0.2 -8.86,0.2c-13.97,0 -27.92,1.47 -41.46,4.36l2.06,9.67c12.86,-2.74 26.12,-4.13 39.39,-4.13l0.06,0zm-112.8,350.59c14.02,9.74 29.25,17.62 45.24,23.43l3.38,-9.3c-15.2,-5.52 -29.65,-13 -42.97,-22.25l-5.65,8.12zm14.24,-762.65c14.8,8.51 30.65,15.06 47.1,19.47l2.56,-9.55c-15.62,-4.19 -30.67,-10.42 -44.73,-18.5l-4.93,8.58zm-71.91,-71.04c8.67,14.66 19.23,28.17 31.37,40.17l6.95,-7.04c-11.54,-11.4 -21.56,-24.24 -29.8,-38.16l-8.52,5.03zm350.9,232.53l9.5,-2.77c-4.77,-16.35 -11.66,-32.05 -20.49,-46.67l-8.47,5.12c8.39,13.88 14.93,28.8 19.46,44.32zm-361.44,-282.07c-4.37,-15.53 -6.72,-31.64 -6.99,-47.9l-9.89,0.16c0.28,17.11 2.75,34.08 7.36,50.42l9.52,-2.68zm273.27,-248.93l-49.84,0l0,9.89l49.84,0l0,-9.89zm99.68,0l-49.84,0l0,9.89l49.84,0l0,-9.89zm-357.02,107.79l-8.68,-4.75c-8.19,14.98 -14.41,30.96 -18.47,47.51l9.61,2.36c3.86,-15.72 9.76,-30.89 17.54,-45.12zm66.02,-69.74l-5.22,-8.41c-14.47,8.98 -27.75,19.82 -39.49,32.22l7.19,6.8c11.15,-11.78 23.77,-22.08 37.52,-30.61zm91.83,-28.02l-0.37,-9.89c-17.1,0.64 -34,3.48 -50.25,8.44l2.88,9.46c15.44,-4.71 31.5,-7.4 47.74,-8.01zm1146.11,-10.03l0,9.89l48.25,0l0,-9.89l-48.25,0zm-398.71,9.89l49.84,0l0,-9.89l-49.84,0l0,9.89zm-199.36,0l49.84,0l0,-9.89l-49.84,0l0,9.89zm99.68,0l49.84,0l0,-9.89l-49.84,0l0,9.89zm-199.36,0l49.84,0l0,-9.89l-49.84,0l0,9.89zm398.72,0l49.83,0l0,-9.89l-49.83,0l0,9.89zm199.36,0l49.83,0l0,-9.89l-49.83,0l0,9.89zm-99.68,0l49.83,0l0,-9.89l-49.83,0l0,9.89zm298.82,0l49.84,0l0,-9.89l-49.84,0l0,9.89zm99.68,0l49.84,0l0,-9.89l-49.84,0l0,9.89zm99.68,0l49.84,0l0,-9.89l-49.84,0l0,9.89zm-99.68,0l49.84,0l0,-9.89l-49.84,0l0,9.89zm100.55,0l49.84,0l0,-9.89l-49.84,0l0,9.89zm99.68,0l49.84,0l0,-9.89l-49.84,0l0,9.89zm-99.68,0l49.84,0l0,-9.89l-49.84,0l0,9.89zm-1439.48,375.94l-0.05,9.9l0.89,0c15.99,0 31.87,2.01 47.2,5.97l2.47,-9.58c-16.13,-4.17 -32.84,-6.28 -49.66,-6.28l-0.85,-0.01zm342.35,-375.94l49.84,0l0,-9.89l-49.84,0l0,9.89zm-263.69,1174.32c14.71,6.7 28.55,15.31 41.11,25.58l6.26,-7.65c-13.22,-10.82 -27.78,-19.88 -43.27,-26.93l-4.1,9zm19.14,-773.03l-4.86,8.62c14.1,7.94 27.15,17.69 38.79,28.99l6.89,-7.1c-12.25,-11.89 -25.98,-22.16 -40.82,-30.51zm144.88,-401.29l49.83,0l0,-9.89l-49.83,0l0,9.89zm-141.41,732.73c-13.7,8.68 -28.47,15.55 -43.9,20.4l2.98,9.44c16.24,-5.11 31.79,-12.34 46.22,-21.48l-5.3,-8.36zm87.48,-163.78c0.05,1.62 0.07,3.24 0.07,4.86c0,14.63 -1.69,29.2 -5.02,43.3l9.63,2.27c3.5,-14.84 5.28,-30.18 5.28,-45.57c0,-1.71 -0.02,-3.41 -0.07,-5.11l-9.89,0.25zm-35.73,666.16c9.53,13.12 17.32,27.42 23.16,42.49l9.23,-3.58c-6.15,-15.86 -14.35,-30.91 -24.39,-44.73l-8,5.82zm13.65,-572.71c-7.63,14.26 -17.1,27.51 -28.15,39.39l7.24,6.74c11.63,-12.5 21.6,-26.45 29.64,-41.46l-8.73,-4.67z" fill="#FFFFFF" id="svg_4"/>
  </g>
  <path d="m1642.81,1341.32c-96.47,41.84 -219.06,63.74 -346.71,63.74c-283.31,0 -307.06,-121.68 -594.79,-171.48c-385.17,-66.68 -701.31,176.42 -701.31,176.42l2400,0c0,0 -229.67,-297.45 -757.19,-68.68z" fill="#a3a3a3" id="svg_5" transform="matrix(1 0 0 1 0 0)"/>
 </g>
</svg>